<svg width="26" height="30" viewBox="0 0 26 30" fill="none" xmlns="http://www.w3.org/2000/svg">
<path d="M25.0029 23.8849C24.9913 23.8765 24.9796 23.8681 24.968 23.8597C24.4245 23.4665 23.6869 23.5212 23.1915 23.9736C21.0292 25.9484 18.1538 27.1553 15.0016 27.1553C13.8177 27.1553 12.671 26.9846 11.5878 26.6674C10.2377 26.2713 8.98604 25.6498 7.87441 24.8402L4.64455 25.8424L3.68825 26.14L4.01436 25.2013C4.0147 25.2016 4.01501 25.202 4.01536 25.2023L5.1051 22.0534C4.33045 20.9702 3.73086 19.7579 3.34355 18.4515C3.01968 17.3574 2.84467 16.1998 2.84467 15.0007C2.84467 9.44903 6.58438 4.75515 11.6786 3.3066C11.7749 3.27809 11.8712 3.25191 11.9675 3.22775C12.0572 3.20584 12.1469 3.18405 12.2366 3.16428C12.2498 3.15777 12.2607 3.15562 12.2738 3.15562C12.3438 3.1381 12.416 3.12057 12.4883 3.10743C12.5473 3.09215 12.6064 3.08116 12.6655 3.07238C12.7749 3.04835 12.8865 3.02868 12.9981 3.01115C13.0703 2.99802 13.1447 2.98699 13.2191 2.9761C13.3264 2.95857 13.4336 2.94544 13.5408 2.93454C13.613 2.92365 13.6874 2.91487 13.7618 2.90827C13.9018 2.89298 14.0441 2.88209 14.1863 2.87334C14.3089 2.86456 14.4293 2.85796 14.5518 2.85357H14.5693C14.7137 2.84707 14.8582 2.8448 15.0026 2.8448C15.3286 2.8448 15.6503 2.85793 15.9698 2.88209C16.0617 2.89074 16.1536 2.89737 16.2433 2.90827C16.4162 2.9258 16.5869 2.94547 16.7575 2.97174C16.8254 2.98052 16.8932 2.99151 16.9589 3.0024C17.1383 3.03083 17.3134 3.06364 17.4884 3.10093C17.5738 3.11836 17.6591 3.13813 17.7444 3.15777C17.8232 3.1753 17.8998 3.19282 17.9764 3.21247C18.2302 3.27805 18.4819 3.34816 18.727 3.42916C18.8473 3.46633 18.9677 3.50791 19.0859 3.55159C19.1165 3.56261 19.1472 3.5735 19.1778 3.58449C19.2653 3.61503 19.3528 3.64797 19.4382 3.68289C19.8145 3.83172 20.1778 3.99584 20.5323 4.17751C20.7621 4.29343 20.9853 4.41814 21.2063 4.55168C21.2872 4.59763 21.366 4.6457 21.4426 4.69603C21.5214 4.74422 21.598 4.79456 21.6746 4.84486C21.7512 4.8952 21.8278 4.9455 21.9022 5.00023C21.9678 5.04403 22.0335 5.08998 22.097 5.13592C22.1976 5.20814 22.2961 5.28251 22.3945 5.35912C22.4514 5.40068 22.5083 5.44448 22.5652 5.49257C22.6374 5.54727 22.7075 5.60635 22.7774 5.66543C22.8475 5.72228 22.9175 5.78148 22.9853 5.84268C23.0554 5.90177 23.1232 5.963 23.1911 6.02647C23.1954 6.03086 23.202 6.03525 23.2063 6.03961C23.7031 6.47726 24.4296 6.5276 24.9679 6.14025C24.9789 6.13147 24.992 6.12273 25.0029 6.11398C25.7054 5.60635 25.7951 4.58658 25.1736 3.98706C25.1473 3.95864 25.1189 3.93237 25.0905 3.9083C24.69 3.54278 24.2698 3.20151 23.8322 2.88203C23.7403 2.81416 23.6484 2.74845 23.5543 2.68286C23.3486 2.53839 23.1385 2.40058 22.924 2.26713C22.8518 2.22109 22.7774 2.17738 22.7052 2.13355C21.7708 1.5712 20.773 1.10952 19.7226 0.76152C19.6373 0.733099 19.5519 0.704678 19.4666 0.678405C19.3287 0.634606 19.1909 0.595289 19.0508 0.555848C18.9699 0.531816 18.8889 0.509902 18.8079 0.490228C18.7379 0.470461 18.6657 0.453059 18.5935 0.435533C18.5694 0.428902 18.5431 0.422397 18.5191 0.418007C18.4272 0.393975 18.3352 0.374208 18.2433 0.354534C18.0924 0.319483 17.9413 0.288943 17.7882 0.260397C17.7072 0.245113 17.6262 0.229829 17.5431 0.216692C17.5168 0.210061 17.4906 0.205672 17.4643 0.203555C17.3637 0.18603 17.263 0.170746 17.1602 0.155368C17.0114 0.133577 16.8604 0.11381 16.7094 0.0962839C16.6241 0.0875365 16.5365 0.0788824 16.4512 0.0701039C15.9742 0.0241569 15.4905 0 15.0026 0C14.8406 0 14.6787 0.00224267 14.519 0.00877985C14.4884 0.00877985 14.4577 0.00877862 14.4271 0.0110199C14.2958 0.0154092 14.1645 0.0219156 14.0354 0.0328109C14.0048 0.0328109 13.9763 0.0350517 13.9457 0.037293C13.7881 0.0481883 13.6306 0.0613249 13.473 0.0766095H13.4708C13.3045 0.0941354 13.1382 0.113779 12.9741 0.137935C12.8253 0.157609 12.6787 0.179492 12.5321 0.203555C12.5015 0.207945 12.4686 0.214452 12.438 0.218841C12.3373 0.236367 12.2367 0.256133 12.136 0.275776C12.0857 0.284523 12.0331 0.295418 11.9828 0.306345C11.9413 0.315092 11.8975 0.323871 11.8559 0.33486C11.7378 0.356775 11.6196 0.385197 11.5036 0.413618C11.357 0.44867 11.2104 0.485837 11.066 0.525153C10.869 0.577731 10.6721 0.636816 10.4752 0.700289C10.3439 0.741847 10.2148 0.783404 10.0878 0.829351C9.77931 0.934382 9.47511 1.05043 9.17755 1.17949C9.02657 1.24297 8.87992 1.30856 8.73112 1.37642C8.58453 1.44428 8.44006 1.51435 8.29565 1.58648C8.0068 1.72868 7.72231 1.88417 7.4466 2.04829C2.99571 4.65005 0 9.48175 0 15.0006C0 17.6981 0.715261 20.2293 1.96635 22.4194L1.96617 22.4199L0.171805 27.5907C-0.0229722 28.1553 0.114897 28.7702 0.528452 29.1969C0.83047 29.5076 1.23525 29.6762 1.65104 29.6762C1.80859 29.6762 1.96614 29.6521 2.11932 29.604L7.44504 27.952C7.44554 27.9522 7.44604 27.9526 7.44657 27.9529L7.44713 27.9527C9.66784 29.2542 12.2494 30 15.0016 30C18.9115 30 22.4761 28.4964 25.1486 26.0375C25.7963 25.4417 25.717 24.3993 25.003 23.8849L25.0029 23.8849Z" fill="#D74E00"/>
<path d="M11.6852 8.29373C11.0768 8.29597 10.5363 8.65486 10.3088 9.21946L10.149 9.61331L6.3152 19.0272C6.01763 19.7559 6.36771 20.5853 7.09424 20.8807C7.82295 21.176 8.65224 20.8281 8.94987 20.0994L11.6786 13.3968L13.9238 18.955L14.3854 20.0973C14.6109 20.6509 15.1426 20.9856 15.705 20.9856C15.8822 20.9856 16.0639 20.9528 16.2367 20.8828C16.9654 20.5874 17.3177 19.758 17.0245 19.0316L13.0594 9.22372C12.8318 8.65925 12.2935 8.29597 11.6852 8.2937L11.6852 8.29373Z" fill="#D74E00"/>
<path d="M20.3705 18.9559L20.8323 20.0981C21.0577 20.6518 21.5894 20.9866 22.1518 20.9866C22.329 20.9866 22.5106 20.9538 22.6835 20.8837C23.4122 20.5884 23.7645 19.759 23.4713 19.0324L19.5061 9.2247C19.4974 9.20503 19.4908 9.18532 19.4799 9.1678C19.4624 9.12842 19.4448 9.09125 19.423 9.05402C19.4186 9.03867 19.4099 9.0256 19.3989 9.01025C19.1669 8.60541 18.7402 8.32534 18.2457 8.29907C18.2194 8.29468 18.191 8.29468 18.1626 8.29468H18.1494C17.366 8.30125 16.7314 8.93803 16.7314 9.72361C16.7314 9.82864 16.7424 9.93149 16.7643 10.03C16.7971 10.1832 16.8562 10.3276 16.9371 10.4589L18.1254 13.3977L20.3705 18.9559Z" fill="#D74E00"/>
</svg>
