<svg width="18" height="18" viewBox="0 0 18 18" fill="none" xmlns="http://www.w3.org/2000/svg">
<path d="M8.99951 1.50073L10.5085 5.42405C10.72 5.97397 10.8258 6.24893 10.9902 6.48022C11.136 6.6852 11.3151 6.86429 11.52 7.01005C11.7513 7.1745 12.0263 7.28025 12.5762 7.49176L16.4995 9.00073L12.5762 10.5097C12.0263 10.7212 11.7513 10.827 11.52 10.9914C11.3151 11.1372 11.136 11.3163 10.9902 11.5213C10.8258 11.7526 10.72 12.0275 10.5085 12.5774L8.99951 16.5007L7.49054 12.5774C7.27903 12.0275 7.17328 11.7526 7.00882 11.5213C6.86307 11.3163 6.68398 11.1372 6.47899 10.9914C6.24771 10.827 5.97275 10.7212 5.42283 10.5097L1.49951 9.00073L5.42282 7.49176C5.97274 7.28025 6.24771 7.1745 6.47899 7.01005C6.68398 6.86429 6.86307 6.6852 7.00882 6.48022C7.17328 6.24893 7.27903 5.97397 7.49054 5.42404L8.99951 1.50073Z" fill="#D74E00" stroke="#D74E00" stroke-width="1.5" stroke-linecap="round" stroke-linejoin="round"/>
</svg>
