<svg width="22" height="22" viewBox="0 0 22 22" fill="none" xmlns="http://www.w3.org/2000/svg">
<path d="M6.07926 0.916626H12.8269L18.5387 6.87583V18.4598C18.5387 19.9089 17.3642 21.0833 15.9152 21.0833H6.07926C4.63023 21.0833 3.45581 19.9088 3.45581 18.4598V3.54008C3.45581 2.09107 4.63023 0.916626 6.07926 0.916626Z" fill="#0263D1"/>
<path opacity="0.302" fill-rule="evenodd" clip-rule="evenodd" d="M12.8186 0.916626V6.82689H18.5386L12.8186 0.916626Z" fill="white"/>
<path d="M5.8916 15.3062V11.9678H7.0742C7.31071 11.9678 7.53094 12.0031 7.73484 12.0684C7.93873 12.1363 8.12359 12.2342 8.28945 12.3647C8.45527 12.4952 8.58579 12.6692 8.68093 12.8867C8.77607 13.1041 8.82502 13.3543 8.82502 13.637C8.82502 13.9197 8.77607 14.1698 8.68093 14.3873C8.58579 14.6048 8.45527 14.7788 8.28945 14.9093C8.12362 15.0398 7.93873 15.1376 7.73484 15.2056C7.53094 15.2709 7.31074 15.3062 7.0742 15.3062H5.8916ZM6.72622 14.5804H6.97361C7.10682 14.5804 7.23188 14.564 7.34333 14.5341C7.45751 14.5015 7.56081 14.4499 7.65868 14.3819C7.75655 14.3139 7.83266 14.2161 7.88703 14.0883C7.94413 13.9632 7.9713 13.811 7.9713 13.637C7.9713 13.463 7.94411 13.3108 7.88703 13.183C7.83266 13.0579 7.75655 12.96 7.65868 12.8921C7.56081 12.8214 7.45751 12.7725 7.34333 12.7398C7.23188 12.7099 7.10682 12.6936 6.97361 12.6936H6.72622V14.5804ZM10.8504 15.3443C10.3474 15.3443 9.93149 15.1812 9.60254 14.8577C9.27358 14.5341 9.11046 14.1263 9.11046 13.637C9.11046 13.1477 9.27358 12.7399 9.60254 12.4164C9.93149 12.0928 10.3474 11.9297 10.8504 11.9297C11.3451 11.9297 11.7557 12.0929 12.0846 12.4164C12.4108 12.7399 12.574 13.1477 12.574 13.637C12.574 14.1263 12.4108 14.5342 12.0846 14.8577C11.7557 15.1812 11.3451 15.3443 10.8504 15.3443ZM10.2088 14.3411C10.3746 14.526 10.5866 14.6184 10.8449 14.6184C11.1032 14.6184 11.3125 14.526 11.4784 14.3411C11.6442 14.1535 11.7258 13.9197 11.7258 13.637C11.7258 13.3543 11.6442 13.1204 11.4784 12.9329C11.3125 12.748 11.1032 12.6556 10.8449 12.6556C10.5866 12.6556 10.3746 12.748 10.2088 12.9329C10.0429 13.1204 9.95865 13.3543 9.95865 13.637C9.95865 13.9197 10.0429 14.1535 10.2088 14.3411ZM14.5585 15.3443C14.0719 15.3443 13.6668 15.192 13.3461 14.893C13.0225 14.5912 12.8622 14.1726 12.8622 13.637C12.8622 13.1041 13.0253 12.6855 13.3515 12.3837C13.6805 12.0819 14.0801 11.9297 14.5586 11.9297C14.9908 11.9297 15.3442 12.0357 15.6243 12.2505C15.9016 12.4625 16.062 12.7453 16.1027 13.0987L15.26 13.27C15.2246 13.0851 15.1403 12.9356 15.0099 12.8241C14.8794 12.7126 14.7271 12.6556 14.5531 12.6556C14.3139 12.6556 14.1154 12.7398 13.955 12.9111C13.7946 13.0851 13.7131 13.3243 13.7131 13.637C13.7131 13.9496 13.7946 14.1888 13.9523 14.3601C14.1127 14.5341 14.3112 14.6184 14.5531 14.6184C14.7271 14.6184 14.8766 14.5695 14.999 14.4716C15.1213 14.3737 15.1974 14.2432 15.23 14.0801L16.0918 14.2759C16.013 14.613 15.839 14.874 15.5671 15.0615C15.298 15.2491 14.9609 15.3443 14.5585 15.3443Z" fill="white"/>
</svg>
