<svg width="126" height="30" viewBox="0 0 126 30" fill="none" xmlns="http://www.w3.org/2000/svg">
<path d="M25.0029 23.8849C24.9913 23.8765 24.9796 23.8681 24.968 23.8597C24.4245 23.4665 23.6869 23.5212 23.1915 23.9736C21.0292 25.9484 18.1538 27.1553 15.0016 27.1553C13.8177 27.1553 12.671 26.9846 11.5878 26.6674C10.2377 26.2713 8.98604 25.6498 7.87441 24.8402L4.64455 25.8424L3.68825 26.14L4.01436 25.2013C4.0147 25.2016 4.01501 25.202 4.01536 25.2023L5.1051 22.0534C4.33045 20.9702 3.73086 19.7579 3.34355 18.4515C3.01968 17.3574 2.84467 16.1998 2.84467 15.0007C2.84467 9.44903 6.58438 4.75515 11.6786 3.3066C11.7749 3.27809 11.8712 3.25191 11.9675 3.22775C12.0572 3.20584 12.1469 3.18405 12.2366 3.16428C12.2498 3.15777 12.2607 3.15562 12.2738 3.15562C12.3438 3.1381 12.416 3.12057 12.4883 3.10743C12.5473 3.09215 12.6064 3.08116 12.6655 3.07238C12.7749 3.04835 12.8865 3.02868 12.9981 3.01115C13.0703 2.99802 13.1447 2.98699 13.2191 2.9761C13.3264 2.95857 13.4336 2.94544 13.5408 2.93454C13.613 2.92365 13.6874 2.91487 13.7618 2.90827C13.9018 2.89298 14.0441 2.88209 14.1863 2.87334C14.3089 2.86456 14.4293 2.85796 14.5518 2.85357H14.5693C14.7137 2.84707 14.8582 2.8448 15.0026 2.8448C15.3286 2.8448 15.6503 2.85793 15.9698 2.88209C16.0617 2.89074 16.1536 2.89737 16.2433 2.90827C16.4162 2.9258 16.5869 2.94547 16.7575 2.97174C16.8254 2.98052 16.8932 2.99151 16.9589 3.0024C17.1383 3.03083 17.3134 3.06364 17.4884 3.10093C17.5738 3.11836 17.6591 3.13813 17.7444 3.15777C17.8232 3.1753 17.8998 3.19282 17.9764 3.21247C18.2302 3.27805 18.4819 3.34816 18.727 3.42916C18.8473 3.46633 18.9677 3.50791 19.0859 3.55159C19.1165 3.56261 19.1472 3.5735 19.1778 3.58449C19.2653 3.61503 19.3528 3.64797 19.4382 3.68289C19.8145 3.83172 20.1778 3.99584 20.5323 4.17751C20.7621 4.29343 20.9853 4.41814 21.2063 4.55168C21.2872 4.59763 21.366 4.6457 21.4426 4.69603C21.5214 4.74422 21.598 4.79456 21.6746 4.84486C21.7512 4.8952 21.8278 4.9455 21.9022 5.00023C21.9678 5.04403 22.0335 5.08998 22.097 5.13592C22.1976 5.20814 22.2961 5.28251 22.3945 5.35912C22.4514 5.40068 22.5083 5.44448 22.5652 5.49257C22.6374 5.54727 22.7075 5.60635 22.7774 5.66543C22.8475 5.72228 22.9175 5.78148 22.9853 5.84268C23.0554 5.90177 23.1232 5.963 23.1911 6.02647C23.1954 6.03086 23.202 6.03525 23.2063 6.03961C23.7031 6.47726 24.4296 6.5276 24.9679 6.14025C24.9789 6.13147 24.992 6.12273 25.0029 6.11398C25.7054 5.60635 25.7951 4.58658 25.1736 3.98706C25.1473 3.95864 25.1189 3.93237 25.0905 3.9083C24.69 3.54278 24.2698 3.20151 23.8322 2.88203C23.7403 2.81416 23.6484 2.74845 23.5543 2.68286C23.3486 2.53839 23.1385 2.40058 22.924 2.26713C22.8518 2.22109 22.7774 2.17738 22.7052 2.13355C21.7708 1.5712 20.773 1.10952 19.7226 0.76152C19.6373 0.733099 19.5519 0.704678 19.4666 0.678405C19.3287 0.634606 19.1909 0.595289 19.0508 0.555848C18.9699 0.531816 18.8889 0.509902 18.8079 0.490228C18.7379 0.470461 18.6657 0.453059 18.5935 0.435533C18.5694 0.428902 18.5431 0.422397 18.5191 0.418007C18.4272 0.393975 18.3352 0.374208 18.2433 0.354534C18.0924 0.319483 17.9413 0.288943 17.7882 0.260397C17.7072 0.245113 17.6262 0.229829 17.5431 0.216692C17.5168 0.210061 17.4906 0.205672 17.4643 0.203555C17.3637 0.18603 17.263 0.170746 17.1602 0.155368C17.0114 0.133577 16.8604 0.11381 16.7094 0.0962839C16.6241 0.0875365 16.5365 0.0788824 16.4512 0.0701039C15.9742 0.0241569 15.4905 0 15.0026 0C14.8406 0 14.6787 0.00224267 14.519 0.00877985C14.4884 0.00877985 14.4577 0.00877862 14.4271 0.0110199C14.2958 0.0154092 14.1645 0.0219156 14.0354 0.0328109C14.0048 0.0328109 13.9763 0.0350517 13.9457 0.037293C13.7881 0.0481883 13.6306 0.0613249 13.473 0.0766095H13.4708C13.3045 0.0941354 13.1382 0.113779 12.9741 0.137935C12.8253 0.157609 12.6787 0.179492 12.5321 0.203555C12.5015 0.207945 12.4686 0.214452 12.438 0.218841C12.3373 0.236367 12.2367 0.256133 12.136 0.275776C12.0857 0.284523 12.0331 0.295418 11.9828 0.306345C11.9413 0.315092 11.8975 0.323871 11.8559 0.33486C11.7378 0.356775 11.6196 0.385197 11.5036 0.413618C11.357 0.44867 11.2104 0.485837 11.066 0.525153C10.869 0.577731 10.6721 0.636816 10.4752 0.700289C10.3439 0.741847 10.2148 0.783404 10.0878 0.829351C9.77931 0.934382 9.47511 1.05043 9.17755 1.17949C9.02657 1.24297 8.87992 1.30856 8.73112 1.37642C8.58453 1.44428 8.44006 1.51435 8.29565 1.58648C8.0068 1.72868 7.72231 1.88417 7.4466 2.04829C2.99571 4.65005 0 9.48175 0 15.0006C0 17.6981 0.715261 20.2293 1.96635 22.4194L1.96617 22.4199L0.171805 27.5907C-0.0229722 28.1553 0.114897 28.7702 0.528452 29.1969C0.83047 29.5076 1.23525 29.6762 1.65104 29.6762C1.80859 29.6762 1.96614 29.6521 2.11932 29.604L7.44504 27.952C7.44554 27.9522 7.44604 27.9526 7.44657 27.9529L7.44713 27.9527C9.66784 29.2542 12.2494 30 15.0016 30C18.9115 30 22.4761 28.4964 25.1486 26.0375C25.7963 25.4417 25.717 24.3993 25.003 23.8849L25.0029 23.8849Z" fill="#D74E00"/>
<path d="M11.6852 8.29373C11.0768 8.29597 10.5363 8.65486 10.3088 9.21946L10.149 9.61331L6.3152 19.0272C6.01763 19.7559 6.36771 20.5853 7.09424 20.8807C7.82295 21.176 8.65224 20.8281 8.94987 20.0994L11.6786 13.3968L13.9238 18.955L14.3854 20.0973C14.6109 20.6509 15.1426 20.9856 15.705 20.9856C15.8822 20.9856 16.0639 20.9528 16.2367 20.8828C16.9654 20.5874 17.3177 19.758 17.0245 19.0316L13.0594 9.22372C12.8318 8.65925 12.2935 8.29597 11.6852 8.2937L11.6852 8.29373Z" fill="#D74E00"/>
<path d="M20.3705 18.9559L20.8323 20.0981C21.0577 20.6518 21.5894 20.9866 22.1518 20.9866C22.329 20.9866 22.5106 20.9538 22.6835 20.8837C23.4122 20.5884 23.7645 19.759 23.4713 19.0324L19.5061 9.2247C19.4974 9.20503 19.4908 9.18532 19.4799 9.1678C19.4624 9.12842 19.4448 9.09125 19.423 9.05402C19.4186 9.03867 19.4099 9.0256 19.3989 9.01025C19.1669 8.60541 18.7402 8.32534 18.2457 8.29907C18.2194 8.29468 18.191 8.29468 18.1626 8.29468H18.1494C17.366 8.30125 16.7314 8.93803 16.7314 9.72361C16.7314 9.82864 16.7424 9.93149 16.7643 10.03C16.7971 10.1832 16.8562 10.3276 16.9371 10.4589L18.1254 13.3977L20.3705 18.9559Z" fill="#D74E00"/>
<path d="M47.4943 15.7266C47.4943 16.4941 47.3595 17.2002 47.09 17.8447C46.8263 18.4893 46.4601 19.0459 45.9913 19.5146C45.5226 19.9775 44.9659 20.3408 44.3214 20.6045C43.6769 20.8682 42.9767 21 42.2208 21H36.0509C35.8868 21 35.7345 20.9707 35.5939 20.9121C35.4532 20.8535 35.3302 20.7744 35.2247 20.6748C35.1251 20.5693 35.046 20.4463 34.9874 20.3057C34.9288 20.165 34.8995 20.0127 34.8995 19.8486V9.54785C34.8995 9.38965 34.9288 9.24023 34.9874 9.09961C35.046 8.95898 35.1251 8.83594 35.2247 8.73047C35.3302 8.625 35.4532 8.54297 35.5939 8.48438C35.7345 8.42578 35.8868 8.39648 36.0509 8.39648H42.2208C42.9767 8.39648 43.6769 8.52832 44.3214 8.79199C44.9659 9.05566 45.5226 9.42188 45.9913 9.89062C46.4601 10.3535 46.8263 10.9102 47.09 11.5605C47.3595 12.2051 47.4943 12.9082 47.4943 13.6699V15.7266ZM45.2091 13.6699C45.2091 13.2246 45.1359 12.8174 44.9894 12.4482C44.8488 12.0791 44.6466 11.7656 44.3829 11.5078C44.1193 11.2441 43.8029 11.042 43.4337 10.9014C43.0704 10.7549 42.6661 10.6816 42.2208 10.6816H37.1847V18.7148H42.2208C42.6661 18.7148 43.0704 18.6445 43.4337 18.5039C43.8029 18.3574 44.1193 18.1553 44.3829 17.8975C44.6466 17.6338 44.8488 17.3203 44.9894 16.957C45.1359 16.5879 45.2091 16.1777 45.2091 15.7266V13.6699ZM60.8965 17.792C60.8965 18.1846 60.8467 18.5391 60.7471 18.8555C60.6475 19.166 60.5157 19.4414 60.3516 19.6816C60.1875 19.916 59.9971 20.1182 59.7803 20.2881C59.5635 20.4521 59.335 20.5869 59.0948 20.6924C58.8604 20.7979 58.6202 20.877 58.3741 20.9297C58.1338 20.9766 57.9053 21 57.6885 21H53.5665C53.25 21 52.9043 20.9443 52.5293 20.833C52.1543 20.7217 51.8057 20.54 51.4834 20.2881C51.167 20.0303 50.9004 19.6992 50.6836 19.2949C50.4727 18.8848 50.3672 18.3838 50.3672 17.792V14.6982C50.3672 14.1123 50.4727 13.6172 50.6836 13.2129C50.9004 12.8027 51.167 12.4717 51.4834 12.2197C51.8057 11.9619 52.1543 11.7773 52.5293 11.666C52.9043 11.5547 53.25 11.499 53.5665 11.499H57.6885C58.2745 11.499 58.7725 11.6045 59.1827 11.8154C59.5928 12.0264 59.9239 12.293 60.1758 12.6152C60.4278 12.9316 60.6094 13.2773 60.7207 13.6523C60.8379 14.0273 60.8965 14.376 60.8965 14.6982V17.792ZM58.6114 14.7158C58.6114 14.3994 58.5323 14.165 58.3741 14.0127C58.2159 13.8604 57.9873 13.7842 57.6885 13.7842H53.584C53.2793 13.7842 53.0479 13.8633 52.8897 14.0215C52.7315 14.1738 52.6524 14.3994 52.6524 14.6982V17.792C52.6524 18.0908 52.7315 18.3193 52.8897 18.4775C53.0479 18.6357 53.2793 18.7148 53.584 18.7148H57.6885C57.9991 18.7148 58.2305 18.6357 58.3829 18.4775C58.5352 18.3193 58.6114 18.0908 58.6114 17.792V14.7158ZM73.1298 21H66.9336C66.6172 21 66.2715 20.9443 65.8965 20.833C65.5215 20.7217 65.1728 20.54 64.8506 20.2881C64.5341 20.0303 64.2675 19.6992 64.0507 19.2949C63.8398 18.8848 63.7343 18.3838 63.7343 17.792V14.6982C63.7343 14.4814 63.7578 14.2529 63.8047 14.0127C63.8574 13.7725 63.9365 13.5352 64.042 13.3008C64.1474 13.0605 64.2822 12.832 64.4463 12.6152C64.6162 12.3984 64.8183 12.208 65.0527 12.0439C65.2929 11.8799 65.5683 11.748 65.8789 11.6484C66.1894 11.5488 66.541 11.499 66.9336 11.499H73.1298V13.7842H66.9336C66.6347 13.7842 66.4062 13.8604 66.248 14.0127C66.0957 14.165 66.0195 14.3994 66.0195 14.7158V17.792C66.0195 18.0908 66.0986 18.3193 66.2568 18.4775C66.415 18.6357 66.6465 18.7148 66.9511 18.7148H73.1298V21ZM91.0233 21H88.7206V13.4941L84.6688 20.6221C84.5692 20.8037 84.4286 20.9414 84.247 21.0352C84.0712 21.1289 83.8807 21.1758 83.6757 21.1758C83.4765 21.1758 83.289 21.1289 83.1132 21.0352C82.9432 20.9414 82.8085 20.8037 82.7089 20.6221L78.6395 13.4941V21H76.3544V9.37207C76.3544 9.1084 76.4306 8.87402 76.5829 8.66895C76.7411 8.46387 76.9462 8.32617 77.1981 8.25586C77.3212 8.22656 77.4442 8.21777 77.5673 8.22949C77.6903 8.23535 77.8075 8.26172 77.9188 8.30859C78.036 8.34961 78.1415 8.41113 78.2352 8.49316C78.329 8.56934 78.4081 8.66309 78.4725 8.77441L83.6757 17.8184L88.8788 8.77441C89.0136 8.55176 89.1981 8.39355 89.4325 8.2998C89.6727 8.20605 89.9218 8.19141 90.1796 8.25586C90.4257 8.32617 90.6278 8.46387 90.786 8.66895C90.9442 8.87402 91.0233 9.1084 91.0233 9.37207V21ZM96.8318 9.54785H94.5467V7.48242H96.8318V9.54785ZM96.8318 21H94.5467V11.499H96.8318V21ZM110.638 21H108.353V15.7266C108.353 15.4277 108.301 15.1611 108.195 14.9268C108.095 14.6865 107.958 14.4814 107.782 14.3115C107.606 14.1416 107.398 14.0127 107.158 13.9248C106.924 13.8311 106.669 13.7842 106.393 13.7842H102.394V21H100.109V12.6328C100.109 12.4746 100.138 12.3281 100.197 12.1934C100.256 12.0527 100.338 11.9326 100.443 11.833C100.549 11.7275 100.672 11.6455 100.812 11.5869C100.953 11.5283 101.102 11.499 101.26 11.499H106.411C106.698 11.499 107 11.5312 107.316 11.5957C107.638 11.6602 107.955 11.7656 108.265 11.9121C108.582 12.0527 108.881 12.2344 109.162 12.457C109.449 12.6738 109.701 12.9404 109.918 13.2568C110.14 13.5674 110.316 13.9277 110.445 14.3379C110.574 14.748 110.638 15.2109 110.638 15.7266V21ZM124.146 17.792C124.146 18.1846 124.096 18.5391 123.997 18.8555C123.897 19.166 123.765 19.4414 123.601 19.6816C123.437 19.916 123.247 20.1182 123.03 20.2881C122.813 20.4521 122.585 20.5869 122.344 20.6924C122.11 20.7979 121.87 20.877 121.624 20.9297C121.383 20.9766 121.155 21 120.938 21H116.816C116.423 21 116.072 20.9502 115.761 20.8506C115.451 20.751 115.175 20.6191 114.935 20.4551C114.701 20.2852 114.499 20.0918 114.329 19.875C114.165 19.6582 114.03 19.4326 113.924 19.1982C113.819 18.958 113.74 18.7178 113.687 18.4775C113.64 18.2314 113.617 18.0029 113.617 17.792V14.6982C113.617 14.1123 113.722 13.6172 113.933 13.2129C114.15 12.8027 114.417 12.4717 114.733 12.2197C115.055 11.9619 115.404 11.7773 115.779 11.666C116.154 11.5547 116.5 11.499 116.816 11.499H120.938V13.7842H116.834C116.529 13.7842 116.298 13.8633 116.139 14.0215C115.981 14.1738 115.902 14.3994 115.902 14.6982V17.7744C115.902 18.085 115.978 18.3193 116.131 18.4775C116.289 18.6357 116.517 18.7148 116.816 18.7148H120.938C121.249 18.7148 121.48 18.6357 121.632 18.4775C121.785 18.3193 121.861 18.0908 121.861 17.792V7.48242H124.146V17.792Z" fill="url(#paint0_linear_1314_1748)"/>
<defs>
<linearGradient id="paint0_linear_1314_1748" x1="73.59" y1="-5" x2="73.09" y2="129.5" gradientUnits="userSpaceOnUse">
<stop stop-color="white"/>
<stop offset="1" stop-color="#D74E00"/>
</linearGradient>
</defs>
</svg>
