<svg width="22" height="22" viewBox="0 0 22 22" fill="none" xmlns="http://www.w3.org/2000/svg">
<path fill-rule="evenodd" clip-rule="evenodd" d="M6.0812 0.916626H12.8236L18.538 6.8729V18.4579C18.538 19.9092 17.3638 21.0833 15.9176 21.0833H6.0812C4.62993 21.0833 3.45581 19.9092 3.45581 18.4579V3.54201C3.45579 2.09074 4.6299 0.916626 6.0812 0.916626Z" fill="#E5252A"/>
<path opacity="0.302" fill-rule="evenodd" clip-rule="evenodd" d="M12.8186 0.916626V6.82755H18.538L12.8186 0.916626Z" fill="white"/>
<path d="M6.37354 15.9635V12.2799H7.94071C8.32873 12.2799 8.63613 12.3857 8.86793 12.6024C9.09972 12.8141 9.21563 13.1013 9.21563 13.4591C9.21563 13.8168 9.09972 14.1041 8.86793 14.3157C8.63613 14.5324 8.32873 14.6382 7.94071 14.6382H7.31586V15.9635H6.37354ZM7.31586 13.837H7.83489C7.97598 13.837 8.08685 13.8068 8.16245 13.7362C8.23802 13.6707 8.27836 13.58 8.27836 13.4591C8.27836 13.3382 8.23805 13.2475 8.16245 13.1819C8.08687 13.1114 7.97601 13.0812 7.83489 13.0812H7.31586V13.837ZM9.60363 15.9635V12.2799H10.9088C11.1658 12.2799 11.4076 12.3152 11.6344 12.3908C11.8611 12.4663 12.0678 12.5722 12.2492 12.7183C12.4306 12.8594 12.5767 13.0509 12.6825 13.2928C12.7833 13.5347 12.8388 13.8118 12.8388 14.1242C12.8388 14.4316 12.7833 14.7088 12.6825 14.9506C12.5767 15.1925 12.4306 15.384 12.2492 15.5251C12.0677 15.6712 11.8611 15.7771 11.6344 15.8527C11.4076 15.9282 11.1658 15.9635 10.9088 15.9635H9.60363ZM10.5258 15.1623H10.7979C10.944 15.1623 11.0801 15.1472 11.2061 15.1119C11.327 15.0767 11.4429 15.0212 11.5538 14.9456C11.6596 14.8701 11.7453 14.7642 11.8057 14.6231C11.8662 14.482 11.8964 14.3157 11.8964 14.1242C11.8964 13.9277 11.8662 13.7614 11.8057 13.6203C11.7453 13.4793 11.6596 13.3734 11.5538 13.2978C11.4429 13.2223 11.327 13.1668 11.2061 13.1315C11.0801 13.0963 10.944 13.0811 10.7979 13.0811H10.5258V15.1623ZM13.3124 15.9635V12.2799H15.9328V13.0811H14.2548V13.6707H15.5952V14.4669H14.2548V15.9635H13.3124Z" fill="white"/>
</svg>
