<svg width="18" height="18" viewBox="0 0 18 18" fill="none" xmlns="http://www.w3.org/2000/svg">
<path d="M8.99997 16.3046C8.8452 16.3026 8.69734 16.2402 8.58789 16.1308C8.47844 16.0213 8.41606 15.8735 8.41404 15.7187V8.56247H5.87499C5.78187 8.56857 5.6892 8.54526 5.61004 8.49584C5.53089 8.44642 5.46927 8.37338 5.43387 8.28704C5.39847 8.2007 5.39109 8.10543 5.41276 8.01467C5.43444 7.92391 5.48408 7.84225 5.55468 7.78122L8.67966 3.87499C8.76297 3.79293 8.87522 3.74693 8.99216 3.74693C9.1091 3.74693 9.22135 3.79293 9.30466 3.87499L12.4296 7.78122C12.4989 7.84144 12.5479 7.9216 12.5699 8.01074C12.5919 8.09987 12.5858 8.19361 12.5524 8.27914C12.5191 8.36467 12.4601 8.43779 12.3836 8.48851C12.307 8.53923 12.2167 8.56506 12.125 8.56247H9.60153V11.75V15.7187C9.60051 15.7967 9.58414 15.8737 9.55336 15.9453C9.52258 16.017 9.47798 16.0818 9.42212 16.1363C9.36626 16.1907 9.30023 16.2335 9.22779 16.2624C9.15536 16.2913 9.07795 16.3057 8.99997 16.3046ZM15.3749 2.28125C15.3749 2.12585 15.3132 1.97681 15.2033 1.86693C15.0934 1.75704 14.9444 1.69531 14.789 1.69531H3.21094C3.05554 1.69531 2.9065 1.75704 2.79662 1.86693C2.68673 1.97681 2.625 2.12585 2.625 2.28125C2.625 2.43665 2.68673 2.58568 2.79662 2.69557C2.9065 2.80545 3.05554 2.86718 3.21094 2.86718H14.789C14.8662 2.86823 14.9429 2.8538 15.0145 2.82472C15.086 2.79565 15.1511 2.75253 15.2057 2.69791C15.2603 2.64329 15.3034 2.57828 15.3325 2.50671C15.3616 2.43515 15.376 2.35848 15.3749 2.28125Z" fill="#D74E00"/>
</svg>
